<?xml version="1.0" standalone="no"?><!DOCTYPE svg PUBLIC "-//W3C//DTD SVG 1.1//EN" "http://www.w3.org/Graphics/SVG/1.1/DTD/svg11.dtd"><svg class="icon" width="200px" height="200.00px" viewBox="0 0 1024 1024" version="1.1" xmlns="http://www.w3.org/2000/svg"><path fill="#383b8c" d="M508.509091 999.563636s-1.163636 0 0 0c-39.563636 0-76.8-22.109091-110.545455-64l-39.563636-48.872727c-54.690909-67.490909-110.545455-137.309091-164.072727-207.127273-61.672727-80.290909-90.763636-161.745455-88.436364-249.018181v-2.327273c0-9.309091 0-17.454545 1.163636-26.763637l2.327273-90.763636 8.145455 17.454546C148.945455 197.818182 242.036364 90.763636 371.2 47.709091c180.363636-60.509091 353.745455-5.818182 465.454545 144.290909 102.4 138.472727 101.236364 337.454545-1.163636 473.6-74.472727 97.745455-152.436364 193.163636-219.927273 274.618182-33.745455 39.563636-69.818182 59.345455-107.054545 59.345454zM165.236364 459.636364c4.654545 64 29.090909 124.509091 74.472727 185.018181 52.363636 69.818182 109.381818 138.472727 162.909091 205.963637l39.563636 50.036363c15.127273 19.781818 39.563636 41.890909 65.163637 41.89091 19.781818 0 40.727273-12.8 62.836363-38.4 67.490909-80.290909 145.454545-175.709091 218.763637-272.29091 87.272727-116.363636 87.272727-286.254545 1.163636-403.781818C693.527273 96.581818 544.581818 51.2 389.818182 102.4 252.509091 148.945455 162.909091 280.436364 165.236364 430.545455v29.090909zM509.672727 573.672727h-5.818182c-39.563636-1.163636-76.8-18.618182-104.727272-48.872727-26.763636-29.090909-40.727273-67.490909-39.563637-108.218182v-2.327273c1.163636-39.563636 17.454545-75.636364 45.381819-102.4 27.927273-26.763636 65.163636-40.727273 104.727272-39.563636h9.309091c81.454545 3.490909 144.290909 73.309091 140.8 154.763636v3.49091c-3.490909 79.127273-69.818182 143.127273-150.109091 143.127272z m-3.490909-244.363636c-23.272727 0-44.218182 8.145455-60.509091 24.436364-17.454545 16.290909-26.763636 38.4-27.927272 61.672727v3.490909c-1.163636 24.436364 8.145455 47.709091 24.436363 66.327273 16.290909 18.618182 39.563636 29.090909 64 29.090909 51.2 2.327273 93.090909-37.236364 95.418182-88.436364v-2.327273c2.327273-50.036364-36.072727-91.927273-84.945455-94.254545H507.345455h-1.163637z" /></svg>